<svg xmlns="http://www.w3.org/2000/svg" width="24" height="24" fill="none" viewBox="0 0 24 24"><path fill="#9e131b" fill-rule="evenodd" d="M15.2 14.9c-.942.837-2.05 1.28-3.203 1.28-1.151 0-2.256-.443-3.197-1.28a.75.75 0 0 1 .997-1.12c1.326 1.18 3.082 1.176 4.407 0a.749.749 0 1 1 .996 1.12m6.435-4.884L20.053 8.72l-.004-.003-6.101-5.005a3.054 3.054 0 0 0-3.891-.004L3.952 8.715l-.01.01-1.576 1.291a1.001 1.001 0 0 0 1.269 1.547l.152-.125 1.115 6.638a3.48 3.48 0 0 0 3.444 2.914h7.307a3.48 3.48 0 0 0 3.444-2.914l1.115-6.639.154.126a.997.997 0 0 0 1.407-.139 1 1 0 0 0-.138-1.408" clip-rule="evenodd"/></svg>